<mxfile host="app.diagrams.net" modified="2024-06-04T14:44:02.558Z" agent="Mozilla/5.0 (Windows NT 10.0; Win64; x64) AppleWebKit/537.36 (KHTML, like Gecko) Chrome/125.0.0.0 Safari/537.36" etag="CXeMM14OXZcRTrVnwS9J" version="24.4.13" type="device">
  <diagram name="Trang-1" id="aUMJbExY1LJerTfk_KhY">
    <mxGraphModel dx="1912" dy="1008" grid="1" gridSize="10" guides="1" tooltips="1" connect="1" arrows="1" fold="1" page="1" pageScale="1" pageWidth="827" pageHeight="1169" math="0" shadow="0">
      <root>
        <mxCell id="0" />
        <mxCell id="1" parent="0" />
        <mxCell id="3P0po2gZYzNvYbS1jy3j-1" value="&lt;div style=&quot;text-align: left;&quot;&gt;&lt;font face=&quot;Roboto Flex&quot; color=&quot;#222222&quot;&gt;&lt;span style=&quot;font-size: 16px; background-color: rgb(255, 255, 255);&quot;&gt;users&lt;/span&gt;&lt;/font&gt;&lt;/div&gt;" style="rounded=0;whiteSpace=wrap;html=1;" vertex="1" parent="1">
          <mxGeometry x="324" y="170" width="120" height="60" as="geometry" />
        </mxCell>
        <mxCell id="3P0po2gZYzNvYbS1jy3j-2" value="&lt;span style=&quot;color: rgb(34, 34, 34); font-family: &amp;quot;Roboto Flex&amp;quot;; font-size: 16px; text-align: left; background-color: rgb(255, 255, 255);&quot;&gt;product&lt;/span&gt;" style="rounded=0;whiteSpace=wrap;html=1;" vertex="1" parent="1">
          <mxGeometry x="200" y="860" width="120" height="60" as="geometry" />
        </mxCell>
        <mxCell id="3P0po2gZYzNvYbS1jy3j-3" value="Mua" style="rhombus;whiteSpace=wrap;html=1;" vertex="1" parent="1">
          <mxGeometry x="580" y="290" width="80" height="80" as="geometry" />
        </mxCell>
        <mxCell id="3P0po2gZYzNvYbS1jy3j-4" value="&lt;u&gt;userId&lt;/u&gt;" style="ellipse;whiteSpace=wrap;html=1;" vertex="1" parent="1">
          <mxGeometry width="120" height="80" as="geometry" />
        </mxCell>
        <mxCell id="3P0po2gZYzNvYbS1jy3j-5" value="name" style="ellipse;whiteSpace=wrap;html=1;" vertex="1" parent="1">
          <mxGeometry x="150" width="120" height="80" as="geometry" />
        </mxCell>
        <mxCell id="3P0po2gZYzNvYbS1jy3j-6" value="dateOfBirth" style="ellipse;whiteSpace=wrap;html=1;" vertex="1" parent="1">
          <mxGeometry x="560" width="120" height="80" as="geometry" />
        </mxCell>
        <mxCell id="3P0po2gZYzNvYbS1jy3j-7" value="" style="endArrow=none;html=1;rounded=0;exitX=0.25;exitY=0;exitDx=0;exitDy=0;entryX=0.562;entryY=0.99;entryDx=0;entryDy=0;entryPerimeter=0;" edge="1" parent="1" source="3P0po2gZYzNvYbS1jy3j-1" target="3P0po2gZYzNvYbS1jy3j-4">
          <mxGeometry width="50" height="50" relative="1" as="geometry">
            <mxPoint x="394" y="170" as="sourcePoint" />
            <mxPoint x="214" y="130" as="targetPoint" />
          </mxGeometry>
        </mxCell>
        <mxCell id="3P0po2gZYzNvYbS1jy3j-8" value="&lt;span style=&quot;color: rgb(34, 34, 34); font-family: &amp;quot;Roboto Flex&amp;quot;; font-size: 16px; text-align: left; background-color: rgb(255, 255, 255);&quot;&gt;&lt;u&gt;productId&lt;/u&gt;&lt;/span&gt;" style="ellipse;whiteSpace=wrap;html=1;" vertex="1" parent="1">
          <mxGeometry x="10" y="1010" width="120" height="80" as="geometry" />
        </mxCell>
        <mxCell id="3P0po2gZYzNvYbS1jy3j-9" value="name" style="ellipse;whiteSpace=wrap;html=1;" vertex="1" parent="1">
          <mxGeometry x="150" y="1010" width="120" height="80" as="geometry" />
        </mxCell>
        <mxCell id="3P0po2gZYzNvYbS1jy3j-10" value="price" style="ellipse;whiteSpace=wrap;html=1;" vertex="1" parent="1">
          <mxGeometry x="294" y="1010" width="120" height="80" as="geometry" />
        </mxCell>
        <mxCell id="3P0po2gZYzNvYbS1jy3j-11" value="stock" style="ellipse;whiteSpace=wrap;html=1;" vertex="1" parent="1">
          <mxGeometry x="470" y="1010" width="120" height="80" as="geometry" />
        </mxCell>
        <mxCell id="3P0po2gZYzNvYbS1jy3j-12" value="" style="endArrow=none;html=1;rounded=0;entryX=0.5;entryY=0;entryDx=0;entryDy=0;exitX=0;exitY=1;exitDx=0;exitDy=0;" edge="1" parent="1" source="3P0po2gZYzNvYbS1jy3j-2" target="3P0po2gZYzNvYbS1jy3j-8">
          <mxGeometry width="50" height="50" relative="1" as="geometry">
            <mxPoint x="140.03999999999996" y="988" as="sourcePoint" />
            <mxPoint x="69.03999999999999" y="980" as="targetPoint" />
          </mxGeometry>
        </mxCell>
        <mxCell id="3P0po2gZYzNvYbS1jy3j-13" value="" style="endArrow=none;html=1;rounded=0;entryX=0.5;entryY=0;entryDx=0;entryDy=0;exitX=0.5;exitY=1;exitDx=0;exitDy=0;" edge="1" parent="1" source="3P0po2gZYzNvYbS1jy3j-2" target="3P0po2gZYzNvYbS1jy3j-9">
          <mxGeometry width="50" height="50" relative="1" as="geometry">
            <mxPoint x="275" y="940" as="sourcePoint" />
            <mxPoint x="145" y="1030" as="targetPoint" />
          </mxGeometry>
        </mxCell>
        <mxCell id="3P0po2gZYzNvYbS1jy3j-14" value="" style="endArrow=none;html=1;rounded=0;entryX=0.5;entryY=0;entryDx=0;entryDy=0;" edge="1" parent="1" target="3P0po2gZYzNvYbS1jy3j-10">
          <mxGeometry width="50" height="50" relative="1" as="geometry">
            <mxPoint x="280" y="920" as="sourcePoint" />
            <mxPoint x="290" y="1040" as="targetPoint" />
          </mxGeometry>
        </mxCell>
        <mxCell id="3P0po2gZYzNvYbS1jy3j-15" value="" style="endArrow=none;html=1;rounded=0;entryX=1;entryY=1;entryDx=0;entryDy=0;exitX=0;exitY=0.5;exitDx=0;exitDy=0;" edge="1" parent="1" source="3P0po2gZYzNvYbS1jy3j-11" target="3P0po2gZYzNvYbS1jy3j-2">
          <mxGeometry width="50" height="50" relative="1" as="geometry">
            <mxPoint x="450" y="840" as="sourcePoint" />
            <mxPoint x="320" y="930" as="targetPoint" />
          </mxGeometry>
        </mxCell>
        <mxCell id="3P0po2gZYzNvYbS1jy3j-16" value="address" style="ellipse;whiteSpace=wrap;html=1;" vertex="1" parent="1">
          <mxGeometry x="280" width="120" height="80" as="geometry" />
        </mxCell>
        <mxCell id="3P0po2gZYzNvYbS1jy3j-17" value="" style="endArrow=none;html=1;rounded=0;exitX=0.5;exitY=1;exitDx=0;exitDy=0;entryX=1;entryY=0;entryDx=0;entryDy=0;" edge="1" parent="1" source="3P0po2gZYzNvYbS1jy3j-6" target="3P0po2gZYzNvYbS1jy3j-1">
          <mxGeometry width="50" height="50" relative="1" as="geometry">
            <mxPoint x="689" y="178.96" as="sourcePoint" />
            <mxPoint x="474" y="139.96" as="targetPoint" />
          </mxGeometry>
        </mxCell>
        <mxCell id="3P0po2gZYzNvYbS1jy3j-18" value="" style="endArrow=none;html=1;rounded=0;exitX=0.4;exitY=-0.017;exitDx=0;exitDy=0;entryX=0.5;entryY=1;entryDx=0;entryDy=0;exitPerimeter=0;" edge="1" parent="1" source="3P0po2gZYzNvYbS1jy3j-1" target="3P0po2gZYzNvYbS1jy3j-5">
          <mxGeometry width="50" height="50" relative="1" as="geometry">
            <mxPoint x="385" y="158.96" as="sourcePoint" />
            <mxPoint x="100" y="109.96000000000001" as="targetPoint" />
          </mxGeometry>
        </mxCell>
        <mxCell id="3P0po2gZYzNvYbS1jy3j-19" value="" style="endArrow=none;html=1;rounded=0;exitX=0.5;exitY=1;exitDx=0;exitDy=0;entryX=0.75;entryY=0;entryDx=0;entryDy=0;" edge="1" parent="1" source="3P0po2gZYzNvYbS1jy3j-20" target="3P0po2gZYzNvYbS1jy3j-1">
          <mxGeometry width="50" height="50" relative="1" as="geometry">
            <mxPoint x="598" y="120" as="sourcePoint" />
            <mxPoint x="400" y="158" as="targetPoint" />
          </mxGeometry>
        </mxCell>
        <mxCell id="3P0po2gZYzNvYbS1jy3j-20" value="phone" style="ellipse;whiteSpace=wrap;html=1;" vertex="1" parent="1">
          <mxGeometry x="430" width="120" height="80" as="geometry" />
        </mxCell>
        <mxCell id="3P0po2gZYzNvYbS1jy3j-21" value="" style="endArrow=none;html=1;rounded=0;exitX=0.5;exitY=0;exitDx=0;exitDy=0;entryX=0.5;entryY=1;entryDx=0;entryDy=0;" edge="1" parent="1" source="3P0po2gZYzNvYbS1jy3j-1" target="3P0po2gZYzNvYbS1jy3j-16">
          <mxGeometry width="50" height="50" relative="1" as="geometry">
            <mxPoint x="433" y="169" as="sourcePoint" />
            <mxPoint x="275" y="120" as="targetPoint" />
          </mxGeometry>
        </mxCell>
        <mxCell id="3P0po2gZYzNvYbS1jy3j-22" value="status" style="ellipse;whiteSpace=wrap;html=1;" vertex="1" parent="1">
          <mxGeometry x="710" y="70" width="120" height="80" as="geometry" />
        </mxCell>
        <mxCell id="3P0po2gZYzNvYbS1jy3j-23" value="" style="endArrow=none;html=1;rounded=0;exitX=0;exitY=0.5;exitDx=0;exitDy=0;entryX=1;entryY=0.5;entryDx=0;entryDy=0;" edge="1" parent="1" source="3P0po2gZYzNvYbS1jy3j-22" target="3P0po2gZYzNvYbS1jy3j-1">
          <mxGeometry width="50" height="50" relative="1" as="geometry">
            <mxPoint x="648" y="170" as="sourcePoint" />
            <mxPoint x="450" y="208" as="targetPoint" />
          </mxGeometry>
        </mxCell>
        <mxCell id="3P0po2gZYzNvYbS1jy3j-24" value="" style="rounded=0;whiteSpace=wrap;html=1;" vertex="1" parent="1">
          <mxGeometry x="240" y="394" width="130" height="70" as="geometry" />
        </mxCell>
        <mxCell id="3P0po2gZYzNvYbS1jy3j-25" value="&lt;div style=&quot;text-align: left;&quot;&gt;&lt;font face=&quot;Roboto Flex&quot; color=&quot;#222222&quot;&gt;&lt;span style=&quot;font-size: 16px; background-color: rgb(255, 255, 255);&quot;&gt;order_detail&lt;/span&gt;&lt;/font&gt;&lt;/div&gt;" style="rounded=0;whiteSpace=wrap;html=1;" vertex="1" parent="1">
          <mxGeometry x="253" y="403" width="100" height="50" as="geometry" />
        </mxCell>
        <mxCell id="3P0po2gZYzNvYbS1jy3j-26" value="" style="endArrow=classic;html=1;rounded=0;exitX=1.013;exitY=0.573;exitDx=0;exitDy=0;entryX=0;entryY=0.5;entryDx=0;entryDy=0;exitPerimeter=0;" edge="1" parent="1" source="3P0po2gZYzNvYbS1jy3j-3" target="3P0po2gZYzNvYbS1jy3j-46">
          <mxGeometry width="50" height="50" relative="1" as="geometry">
            <mxPoint x="550" y="340" as="sourcePoint" />
            <mxPoint x="600" y="290" as="targetPoint" />
          </mxGeometry>
        </mxCell>
        <mxCell id="3P0po2gZYzNvYbS1jy3j-27" value="N" style="edgeLabel;html=1;align=center;verticalAlign=middle;resizable=0;points=[];" vertex="1" connectable="0" parent="3P0po2gZYzNvYbS1jy3j-26">
          <mxGeometry x="-0.0955" y="-3" relative="1" as="geometry">
            <mxPoint as="offset" />
          </mxGeometry>
        </mxCell>
        <mxCell id="3P0po2gZYzNvYbS1jy3j-28" value="Thuộc" style="rhombus;whiteSpace=wrap;html=1;" vertex="1" parent="1">
          <mxGeometry x="244" y="620" width="80" height="80" as="geometry" />
        </mxCell>
        <mxCell id="3P0po2gZYzNvYbS1jy3j-29" value="" style="endArrow=classic;html=1;rounded=0;exitX=0.5;exitY=0;exitDx=0;exitDy=0;entryX=0.5;entryY=1;entryDx=0;entryDy=0;" edge="1" parent="1" source="3P0po2gZYzNvYbS1jy3j-2" target="3P0po2gZYzNvYbS1jy3j-28">
          <mxGeometry width="50" height="50" relative="1" as="geometry">
            <mxPoint x="550" y="340" as="sourcePoint" />
            <mxPoint x="600" y="290" as="targetPoint" />
          </mxGeometry>
        </mxCell>
        <mxCell id="3P0po2gZYzNvYbS1jy3j-30" value="1" style="edgeLabel;html=1;align=center;verticalAlign=middle;resizable=0;points=[];" vertex="1" connectable="0" parent="3P0po2gZYzNvYbS1jy3j-29">
          <mxGeometry x="0.012" y="2" relative="1" as="geometry">
            <mxPoint as="offset" />
          </mxGeometry>
        </mxCell>
        <mxCell id="3P0po2gZYzNvYbS1jy3j-31" value="" style="endArrow=classic;html=1;rounded=0;exitX=0.5;exitY=0;exitDx=0;exitDy=0;entryX=0.5;entryY=1;entryDx=0;entryDy=0;" edge="1" parent="1" source="3P0po2gZYzNvYbS1jy3j-28" target="3P0po2gZYzNvYbS1jy3j-24">
          <mxGeometry width="50" height="50" relative="1" as="geometry">
            <mxPoint x="550" y="340" as="sourcePoint" />
            <mxPoint x="600" y="290" as="targetPoint" />
          </mxGeometry>
        </mxCell>
        <mxCell id="3P0po2gZYzNvYbS1jy3j-32" value="N" style="edgeLabel;html=1;align=center;verticalAlign=middle;resizable=0;points=[];" vertex="1" connectable="0" parent="3P0po2gZYzNvYbS1jy3j-31">
          <mxGeometry x="-0.2691" y="1" relative="1" as="geometry">
            <mxPoint as="offset" />
          </mxGeometry>
        </mxCell>
        <mxCell id="3P0po2gZYzNvYbS1jy3j-33" value="" style="endArrow=classic;html=1;rounded=0;exitX=0.5;exitY=1;exitDx=0;exitDy=0;entryX=0;entryY=0;entryDx=0;entryDy=0;" edge="1" parent="1" source="3P0po2gZYzNvYbS1jy3j-1" target="3P0po2gZYzNvYbS1jy3j-3">
          <mxGeometry width="50" height="50" relative="1" as="geometry">
            <mxPoint x="550" y="440" as="sourcePoint" />
            <mxPoint x="600" y="390" as="targetPoint" />
          </mxGeometry>
        </mxCell>
        <mxCell id="3P0po2gZYzNvYbS1jy3j-34" value="1" style="edgeLabel;html=1;align=center;verticalAlign=middle;resizable=0;points=[];" vertex="1" connectable="0" parent="3P0po2gZYzNvYbS1jy3j-33">
          <mxGeometry x="-0.1237" y="-2" relative="1" as="geometry">
            <mxPoint as="offset" />
          </mxGeometry>
        </mxCell>
        <mxCell id="3P0po2gZYzNvYbS1jy3j-35" value="status" style="ellipse;whiteSpace=wrap;html=1;" vertex="1" parent="1">
          <mxGeometry x="486" y="890" width="120" height="80" as="geometry" />
        </mxCell>
        <mxCell id="3P0po2gZYzNvYbS1jy3j-36" value="" style="endArrow=none;html=1;rounded=0;entryX=0;entryY=0.5;entryDx=0;entryDy=0;exitX=1;exitY=0.5;exitDx=0;exitDy=0;" edge="1" parent="1" source="3P0po2gZYzNvYbS1jy3j-2" target="3P0po2gZYzNvYbS1jy3j-35">
          <mxGeometry width="50" height="50" relative="1" as="geometry">
            <mxPoint x="430" y="920" as="sourcePoint" />
            <mxPoint x="480" y="870" as="targetPoint" />
          </mxGeometry>
        </mxCell>
        <mxCell id="3P0po2gZYzNvYbS1jy3j-37" value="&lt;u&gt;id&lt;/u&gt;" style="ellipse;whiteSpace=wrap;html=1;" vertex="1" parent="1">
          <mxGeometry x="10" y="240" width="120" height="80" as="geometry" />
        </mxCell>
        <mxCell id="3P0po2gZYzNvYbS1jy3j-38" value="quantity" style="ellipse;whiteSpace=wrap;html=1;" vertex="1" parent="1">
          <mxGeometry y="650" width="120" height="80" as="geometry" />
        </mxCell>
        <mxCell id="3P0po2gZYzNvYbS1jy3j-39" value="" style="endArrow=none;html=1;rounded=0;exitX=1.017;exitY=0.391;exitDx=0;exitDy=0;entryX=0.161;entryY=0.997;entryDx=0;entryDy=0;entryPerimeter=0;exitPerimeter=0;" edge="1" parent="1" source="3P0po2gZYzNvYbS1jy3j-38" target="3P0po2gZYzNvYbS1jy3j-24">
          <mxGeometry width="50" height="50" relative="1" as="geometry">
            <mxPoint x="240" y="468.96" as="sourcePoint" />
            <mxPoint x="440" y="440" as="targetPoint" />
          </mxGeometry>
        </mxCell>
        <mxCell id="3P0po2gZYzNvYbS1jy3j-40" value="" style="endArrow=none;html=1;rounded=0;entryX=0;entryY=0;entryDx=0;entryDy=0;" edge="1" parent="1" source="3P0po2gZYzNvYbS1jy3j-37" target="3P0po2gZYzNvYbS1jy3j-24">
          <mxGeometry width="50" height="50" relative="1" as="geometry">
            <mxPoint x="540" y="464" as="sourcePoint" />
            <mxPoint x="450" y="380" as="targetPoint" />
          </mxGeometry>
        </mxCell>
        <mxCell id="3P0po2gZYzNvYbS1jy3j-41" value="" style="endArrow=none;html=1;rounded=0;entryX=1;entryY=0.5;entryDx=0;entryDy=0;exitX=-0.008;exitY=0.386;exitDx=0;exitDy=0;exitPerimeter=0;" edge="1" parent="1" source="3P0po2gZYzNvYbS1jy3j-24" target="3P0po2gZYzNvYbS1jy3j-42">
          <mxGeometry width="50" height="50" relative="1" as="geometry">
            <mxPoint x="280" y="377.5" as="sourcePoint" />
            <mxPoint x="190" y="419.5" as="targetPoint" />
          </mxGeometry>
        </mxCell>
        <mxCell id="3P0po2gZYzNvYbS1jy3j-42" value="order" style="ellipse;whiteSpace=wrap;html=1;" vertex="1" parent="1">
          <mxGeometry x="10" y="350" width="120" height="80" as="geometry" />
        </mxCell>
        <mxCell id="3P0po2gZYzNvYbS1jy3j-43" value="&lt;span style=&quot;color: rgb(34, 34, 34); text-align: left; background-color: rgb(255, 255, 255);&quot;&gt;&lt;font style=&quot;font-size: 12px;&quot; face=&quot;Helvetica&quot;&gt;product&lt;/font&gt;&lt;/span&gt;" style="ellipse;whiteSpace=wrap;html=1;" vertex="1" parent="1">
          <mxGeometry x="10" y="450" width="120" height="80" as="geometry" />
        </mxCell>
        <mxCell id="3P0po2gZYzNvYbS1jy3j-44" value="" style="endArrow=none;html=1;rounded=0;exitX=0.981;exitY=0.601;exitDx=0;exitDy=0;exitPerimeter=0;entryX=0;entryY=0.75;entryDx=0;entryDy=0;" edge="1" parent="1" source="3P0po2gZYzNvYbS1jy3j-43" target="3P0po2gZYzNvYbS1jy3j-24">
          <mxGeometry width="50" height="50" relative="1" as="geometry">
            <mxPoint x="144" y="820" as="sourcePoint" />
            <mxPoint x="310" y="460" as="targetPoint" />
          </mxGeometry>
        </mxCell>
        <mxCell id="3P0po2gZYzNvYbS1jy3j-46" value="&lt;div style=&quot;text-align: left;&quot;&gt;&lt;font face=&quot;Roboto Flex&quot; color=&quot;#222222&quot;&gt;&lt;span style=&quot;font-size: 16px; background-color: rgb(255, 255, 255);&quot;&gt;orders&lt;/span&gt;&lt;/font&gt;&lt;/div&gt;" style="rounded=0;whiteSpace=wrap;html=1;" vertex="1" parent="1">
          <mxGeometry x="977" y="400" width="120" height="60" as="geometry" />
        </mxCell>
        <mxCell id="3P0po2gZYzNvYbS1jy3j-47" value="&lt;u&gt;id&lt;/u&gt;" style="ellipse;whiteSpace=wrap;html=1;" vertex="1" parent="1">
          <mxGeometry x="820" y="210" width="120" height="80" as="geometry" />
        </mxCell>
        <mxCell id="3P0po2gZYzNvYbS1jy3j-48" value="" style="endArrow=none;html=1;rounded=0;entryX=1;entryY=0.5;entryDx=0;entryDy=0;exitX=0;exitY=1;exitDx=0;exitDy=0;" edge="1" target="3P0po2gZYzNvYbS1jy3j-49" parent="1" source="3P0po2gZYzNvYbS1jy3j-24">
          <mxGeometry width="50" height="50" relative="1" as="geometry">
            <mxPoint x="10" y="499" as="sourcePoint" />
            <mxPoint x="20" y="619" as="targetPoint" />
          </mxGeometry>
        </mxCell>
        <mxCell id="3P0po2gZYzNvYbS1jy3j-49" value="price" style="ellipse;whiteSpace=wrap;html=1;" vertex="1" parent="1">
          <mxGeometry y="550" width="120" height="80" as="geometry" />
        </mxCell>
        <mxCell id="3P0po2gZYzNvYbS1jy3j-50" value="createdDate" style="ellipse;whiteSpace=wrap;html=1;" vertex="1" parent="1">
          <mxGeometry x="1020" y="220" width="120" height="80" as="geometry" />
        </mxCell>
        <mxCell id="3P0po2gZYzNvYbS1jy3j-51" value="status" style="ellipse;whiteSpace=wrap;html=1;" vertex="1" parent="1">
          <mxGeometry x="820" y="570" width="120" height="80" as="geometry" />
        </mxCell>
        <mxCell id="3P0po2gZYzNvYbS1jy3j-52" value="total" style="ellipse;whiteSpace=wrap;html=1;" vertex="1" parent="1">
          <mxGeometry x="1160" y="570" width="120" height="80" as="geometry" />
        </mxCell>
        <mxCell id="3P0po2gZYzNvYbS1jy3j-53" value="Có" style="rhombus;whiteSpace=wrap;html=1;" vertex="1" parent="1">
          <mxGeometry x="560" y="394" width="80" height="80" as="geometry" />
        </mxCell>
        <mxCell id="3P0po2gZYzNvYbS1jy3j-54" value="" style="endArrow=classic;html=1;rounded=0;exitX=0;exitY=0.75;exitDx=0;exitDy=0;entryX=1;entryY=0.5;entryDx=0;entryDy=0;" edge="1" parent="1" source="3P0po2gZYzNvYbS1jy3j-46" target="3P0po2gZYzNvYbS1jy3j-53">
          <mxGeometry width="50" height="50" relative="1" as="geometry">
            <mxPoint x="610" y="620" as="sourcePoint" />
            <mxPoint x="660" y="570" as="targetPoint" />
          </mxGeometry>
        </mxCell>
        <mxCell id="3P0po2gZYzNvYbS1jy3j-59" value="1" style="edgeLabel;html=1;align=center;verticalAlign=middle;resizable=0;points=[];" vertex="1" connectable="0" parent="3P0po2gZYzNvYbS1jy3j-54">
          <mxGeometry x="-0.116" y="5" relative="1" as="geometry">
            <mxPoint as="offset" />
          </mxGeometry>
        </mxCell>
        <mxCell id="3P0po2gZYzNvYbS1jy3j-58" value="" style="endArrow=classic;html=1;rounded=0;exitX=0;exitY=0.5;exitDx=0;exitDy=0;entryX=1;entryY=0.5;entryDx=0;entryDy=0;" edge="1" parent="1" source="3P0po2gZYzNvYbS1jy3j-53" target="3P0po2gZYzNvYbS1jy3j-24">
          <mxGeometry width="50" height="50" relative="1" as="geometry">
            <mxPoint x="610" y="620" as="sourcePoint" />
            <mxPoint x="660" y="570" as="targetPoint" />
          </mxGeometry>
        </mxCell>
        <mxCell id="3P0po2gZYzNvYbS1jy3j-60" value="N" style="edgeLabel;html=1;align=center;verticalAlign=middle;resizable=0;points=[];" vertex="1" connectable="0" parent="3P0po2gZYzNvYbS1jy3j-58">
          <mxGeometry x="-0.0264" y="2" relative="1" as="geometry">
            <mxPoint as="offset" />
          </mxGeometry>
        </mxCell>
        <mxCell id="3P0po2gZYzNvYbS1jy3j-62" value="orderDate" style="ellipse;whiteSpace=wrap;html=1;" vertex="1" parent="1">
          <mxGeometry x="1170" y="290" width="120" height="80" as="geometry" />
        </mxCell>
        <mxCell id="3P0po2gZYzNvYbS1jy3j-63" value="receiveDate" style="ellipse;whiteSpace=wrap;html=1;" vertex="1" parent="1">
          <mxGeometry x="1260" y="404" width="120" height="80" as="geometry" />
        </mxCell>
        <mxCell id="3P0po2gZYzNvYbS1jy3j-65" value="user" style="ellipse;whiteSpace=wrap;html=1;" vertex="1" parent="1">
          <mxGeometry x="970" y="570" width="120" height="80" as="geometry" />
        </mxCell>
        <mxCell id="3P0po2gZYzNvYbS1jy3j-66" value="" style="endArrow=none;html=1;rounded=0;exitX=0.704;exitY=0.969;exitDx=0;exitDy=0;entryX=0.5;entryY=0;entryDx=0;entryDy=0;exitPerimeter=0;" edge="1" parent="1" source="3P0po2gZYzNvYbS1jy3j-47" target="3P0po2gZYzNvYbS1jy3j-46">
          <mxGeometry width="50" height="50" relative="1" as="geometry">
            <mxPoint x="1036" y="290" as="sourcePoint" />
            <mxPoint x="770" y="380" as="targetPoint" />
          </mxGeometry>
        </mxCell>
        <mxCell id="3P0po2gZYzNvYbS1jy3j-67" value="" style="endArrow=none;html=1;rounded=0;exitX=0.5;exitY=1;exitDx=0;exitDy=0;" edge="1" parent="1" source="3P0po2gZYzNvYbS1jy3j-50">
          <mxGeometry width="50" height="50" relative="1" as="geometry">
            <mxPoint x="990" y="280" as="sourcePoint" />
            <mxPoint x="1060" y="400" as="targetPoint" />
          </mxGeometry>
        </mxCell>
        <mxCell id="3P0po2gZYzNvYbS1jy3j-68" value="" style="endArrow=none;html=1;rounded=0;exitX=0.079;exitY=0.813;exitDx=0;exitDy=0;entryX=1;entryY=0.25;entryDx=0;entryDy=0;exitPerimeter=0;" edge="1" parent="1" source="3P0po2gZYzNvYbS1jy3j-62" target="3P0po2gZYzNvYbS1jy3j-46">
          <mxGeometry width="50" height="50" relative="1" as="geometry">
            <mxPoint x="1080" y="330" as="sourcePoint" />
            <mxPoint x="1213" y="442" as="targetPoint" />
          </mxGeometry>
        </mxCell>
        <mxCell id="3P0po2gZYzNvYbS1jy3j-69" value="" style="endArrow=none;html=1;rounded=0;exitX=0.75;exitY=1;exitDx=0;exitDy=0;entryX=0.5;entryY=0;entryDx=0;entryDy=0;" edge="1" parent="1" source="3P0po2gZYzNvYbS1jy3j-46" target="3P0po2gZYzNvYbS1jy3j-52">
          <mxGeometry width="50" height="50" relative="1" as="geometry">
            <mxPoint x="1015.04" y="460" as="sourcePoint" />
            <mxPoint x="1148.04" y="572" as="targetPoint" />
          </mxGeometry>
        </mxCell>
        <mxCell id="3P0po2gZYzNvYbS1jy3j-70" value="" style="endArrow=none;html=1;rounded=0;exitX=1;exitY=0.75;exitDx=0;exitDy=0;entryX=0;entryY=0.5;entryDx=0;entryDy=0;" edge="1" parent="1" source="3P0po2gZYzNvYbS1jy3j-46" target="3P0po2gZYzNvYbS1jy3j-63">
          <mxGeometry width="50" height="50" relative="1" as="geometry">
            <mxPoint x="1115.52" y="509.52" as="sourcePoint" />
            <mxPoint x="1248.52" y="621.52" as="targetPoint" />
          </mxGeometry>
        </mxCell>
        <mxCell id="3P0po2gZYzNvYbS1jy3j-71" value="" style="endArrow=none;html=1;rounded=0;exitX=0.5;exitY=1;exitDx=0;exitDy=0;entryX=0.5;entryY=0;entryDx=0;entryDy=0;" edge="1" parent="1" source="3P0po2gZYzNvYbS1jy3j-46">
          <mxGeometry width="50" height="50" relative="1" as="geometry">
            <mxPoint x="939.52" y="467.52" as="sourcePoint" />
            <mxPoint x="1030" y="570" as="targetPoint" />
          </mxGeometry>
        </mxCell>
        <mxCell id="3P0po2gZYzNvYbS1jy3j-76" value="" style="endArrow=none;html=1;rounded=0;exitX=0.25;exitY=1;exitDx=0;exitDy=0;entryX=1;entryY=0;entryDx=0;entryDy=0;" edge="1" parent="1" source="3P0po2gZYzNvYbS1jy3j-46" target="3P0po2gZYzNvYbS1jy3j-51">
          <mxGeometry width="50" height="50" relative="1" as="geometry">
            <mxPoint x="957" y="460" as="sourcePoint" />
            <mxPoint x="950" y="570" as="targetPoint" />
          </mxGeometry>
        </mxCell>
      </root>
    </mxGraphModel>
  </diagram>
</mxfile>
